<?xml version="1.0" encoding="UTF-8" standalone="no"?>
<svg
        fill="none"
        viewBox="0 0 42 42"
        version="1.1"
        xmlns="http://www.w3.org/2000/svg"
>
  <ellipse
     cx="20.99984"
     cy="15.545595"
     fill="#131313"
     rx="15.459339"
     ry="15.545595"
     style="stroke-width:1.1656" />
  <g
     clip-rule="evenodd"
     fill-rule="evenodd"
     id="g10"
     transform="matrix(1.1655991,0,0,1.1655991,-3.2014949,-3.4967981)">
    <path
       d="m 20.34,11.01 c 2.82,0.15 5.62,0.5 8.11,2.06 a 4.71,4.71 0 0 1 2.41,4.08 c 0.04,2.82 -1.96,4.27 -4.58,3.95 a 25.7,25.7 0 0 1 -3.26,-0.71 c -1.9,-0.49 -3.77,-0.35 -5.64,0.1 -0.9,0.22 -1.78,0.55 -2.7,0.64 -1.74,0.17 -3.56,-0.45 -4.2,-2.17 A 4.87,4.87 0 0 1 12.4,13.1 c 2.4,-1.58 5.13,-1.95 7.94,-2.1 z"
       fill="#ffffff"
       />
    <path
       d="m 27.53,16.46 c 0.02,1.03 -0.68,1.9 -1.53,1.91 -0.75,0.02 -1.5,-0.85 -1.5,-1.76 -0.02,-1 0.65,-1.83 1.5,-1.86 0.85,-0.04 1.52,0.71 1.53,1.71 z m -11.15,0 c 0.01,1.03 -0.68,1.9 -1.53,1.91 -0.75,0.02 -1.5,-0.85 -1.5,-1.76 -0.02,-1 0.65,-1.83 1.5,-1.86 0.85,-0.03 1.52,0.71 1.53,1.71 z"
       fill="#000000"
       />
    <path
       d="m 20.07,38.85 a 26.72,26.72 0 0 1 -9.13,-8.72 c -0.6,-0.98 0.54,-2.08 1.5,-1.45 a 14.8,14.8 0 0 0 16.37,-0.02 c 0.95,-0.64 2.1,0.46 1.5,1.44 a 26.73,26.73 0 0 1 -9.15,8.75 1.06,1.06 0 0 1 -1.09,0 z"
       fill="#74a352"
       />
  </g>
</svg>
